<?xml version="1.0" encoding="utf-8"?>
<!-- Generator: Adobe Illustrator 23.0.2, SVG Export Plug-In . SVG Version: 6.00 Build 0)  -->
<svg version="1.1" id="Layer_1" xmlns="http://www.w3.org/2000/svg" xmlns:xlink="http://www.w3.org/1999/xlink" x="0px" y="0px"
	 viewBox="0 0 1063 1063" style="enable-background:new 0 0 1063 1063;" xml:space="preserve">
<style type="text/css">
	.st0{fill:#FFFFFF;}
</style>
<path class="st0" d="M780.9,928.5h-52.2c-33.2,0-64-13.5-86.5-37.9c-21.5-23.4-32.9-53-30.6-89.6l9.1-143.1
	c5.3,3.2,10.7,5.6,16.1,8.4c11.9,6.1,24.4,12.5,44.7,18.5c1.4,28.9,14.2,71.6,57.5,81.6c19.2,4.4,25.2-24.2,6.6-28.5
	c-24.7-5.7-31.9-29.6-34.1-46.3c20.4,3.3,36.8,3.4,37,3.4c8.1,0,14.6-6.5,14.6-14.6s-6.5-14.6-14.6-14.6l-0.4,0
	c-66.2-0.9-129-35-176.5-85.2c-23.5-24.9-63.4-24.9-87,0c-86,90.8-174,84.6-176.9,85.2c-8.1,0-14.6,6.5-14.6,14.6
	c0,8.1,6.6,14.6,14.6,14.6c0.5,0,15.3,0.2,35.9-3.1c-2.2,16.7-9.5,40.4-34,46.1c-18.6,4.3-12.6,32.9,6.6,28.5
	c43.1-10,56-52.4,57.5-81.3c12.1-3.5,23.9-8.1,35.6-13.5c0.2-0.1,24.9-12.9,28.2-14.9c10.7,168.2,9,141.5,9.2,144.6
	c5.6,68.2-47.9,127.3-117.2,127.3h-46.5c-8.1,0-14.6,6.6-14.6,14.6c0,8.1,6.6,14.6,14.6,14.6h46.5c85.7,0,153.3-73.3,146.3-158.8
	l-10.4-162.3c13.8-10.7,27.3-22.4,40.3-36.1c5.8-6.1,13.7-9.5,22.3-9.5c21.2,0,19.4,12.8,64.4,47.4l-10.2,160.5
	c-3.3,40.7,10.6,81.3,38.3,111.4c27.7,30.1,67.1,47.4,108,47.4h52.2c8.1,0,14.6-6.5,14.6-14.6C795.6,935.1,789,928.5,780.9,928.5z"
	/>
<path class="st0" d="M1026.5,894.8c-30.5-228.1-59.4-443.6-201-537.5c-18.8-12.4-40.7-19-63.3-19c-58.3,0-148.5,44.3-153.6,105.5
	l-3.2,39c-10.7-15.5-18.7-26.9-18.7-45.6v-329c0-8.1-6.6-14.6-14.6-14.6c-8.1,0-14.6,6.5-14.6,14.6v329c0,16.1,4.4,31.8,12.8,45.4
	c10.2,16.6,25.6,37,35.5,48.5c22.5,25.7,43.6,41.8,65.1,53.9c1,0.6,2,1.5,3,2c0.6,0.4,3.8,2,5,2.3c20.7,10.4,47.3,18,70.2,18
	c2.2,0,3.7-1.4,5.6-2.3c1.6-0.7,3.5-0.7,4.7-1.9c9.2-9,3-24.9-10-25c-7-0.1-13.9-1.6-20.8-2.8c13.4-9.4,27-24.5,33.7-49.3
	c2.1-7.8-2.5-15.8-10.3-17.9c-7.8-2.1-15.8,2.5-17.9,10.3c-9.7,35.8-38.6,41.6-46.5,42.5c-21.2-11.4-39.7-27-55.6-44.5l5.8-70
	c3.5-42.6,78.9-78.6,124.4-78.6c16.9,0,33.2,4.9,47.2,14.1c130.5,86.5,158.5,295.6,188.2,517l0.5,3.6c0.9,6.7-1.1,13.2-5.5,18.3
	c-4.5,5.1-10.7,7.9-17.4,7.9H845.3c-8.1,0-14.6,6.6-14.6,14.6c0,8.1,6.5,14.6,14.6,14.6H975c15.1,0,29.5-6.5,39.5-17.9
	c10-11.4,14.5-26.5,12.5-41.5L1026.5,894.8z"/>
<path class="st0" d="M249,381.7c14-9.3,30.3-14.1,47.2-14.1c45.5,0,120.9,36,124.4,78.6l5.6,67.8c-5.1,5.7-10.3,10.3-15.5,15.2
	c-12.6,11.9-7.1,9.1-30.1,24c-3.8,2.5-7.6,5.6-11.5,7.7c-5.9-0.5-37.8-5.2-47.9-42.8c-2.1-7.8-10.1-12.4-17.9-10.3
	c-7.8,2.1-12.4,10.1-10.3,17.9c6.7,24.8,20.3,39.9,33.7,49.3c-6.6,1.1-13.1,2.7-19.8,2.8c-13,0.2-19.3,16-10,25.1
	c0.9,0.9,2.4,0.8,3.5,1.4c2.3,1.3,4.1,2.8,6.9,2.8c21.4-0.3,56.1-9.9,74.3-19.5c44.3-23.5,80.8-66.7,104.5-105.1
	c8.4-13.6,12.8-29.3,12.8-45.4v-329c0-8.1-6.6-14.6-14.6-14.6c-8.1,0-14.6,6.5-14.6,14.6v329c0,23.6-13.2,36-17,41.6l-2.9-35
	c-5.1-61.2-95.2-105.5-153.6-105.5c-22.7,0-44.6,6.6-63.3,19C82.5,456.9,57.5,703.3,31.3,898.4c-4.2,31.4,20.3,59.4,52,59.4h116
	c8.1,0,14.6-6.6,14.6-14.6c0-8.1-6.5-14.6-14.6-14.6h-116c-6.8,0-13-2.8-17.4-7.9c-8.5-9.7-5-20.3-5-21.9
	C90.5,677.3,118.5,468.2,249,381.7z"/>
</svg>
